<?xml version="1.0" encoding="utf-8"?>
<!-- Generator: Adobe Illustrator 23.0.6, SVG Export Plug-In . SVG Version: 6.00 Build 0)  -->
<svg version="1.1" id="Layer_1" xmlns="http://www.w3.org/2000/svg" xmlns:xlink="http://www.w3.org/1999/xlink" x="0px" y="0px"
	 viewBox="0 0 512 512" style="enable-background:new 0 0 512 512;" xml:space="preserve">
<style type="text/css">
	.st0{fill:#E7E7F2;}
	.st1{fill:#CECEE6;}
	.st2{fill:#575F64;}
	.st3{fill:#474F54;}
	.st4{fill:#F2F2F2;}
	.st5{fill:#FFDA2D;}
	.st6{fill:#FDBF00;}
	.st7{fill:#FF9100;}
	.st8{fill:#FF641A;}
</style>
<path class="st0" d="M286.2,307.4l48.2,48.2L345,345l10.6-10.6l-48.2-48.2l-10.6,10.6L286.2,307.4z"/>
<path class="st1" d="M345,344.9l-10.6,10.6l-48.2-48.2l10.6-10.6L345,344.9z"/>
<path class="st2" d="M52.7,307.3c70.2,70.2,184.2,70.4,254.6,0c70.2-70.2,70.4-184.2,0-254.6c-70.2-70.2-184.2-70.4-254.6,0
	C-17.5,123-17.6,236.9,52.7,307.3z"/>
<path class="st3" d="M307.3,307.3L52.7,52.7c-70.2,70.2-70.4,184.2,0,254.6C123,377.5,236.9,377.6,307.3,307.3z"/>
<path class="st4" d="M74,286c58.6,58.6,153.4,58.7,212,0c58.6-58.6,58.7-153.4,0-212c-58.6-58.6-153.4-58.7-212,0
	C15.4,132.6,15.3,227.3,74,286z"/>
<path class="st0" d="M286,286L74,74c-58.6,58.6-58.7,153.4,0,212C132.6,344.7,227.3,344.7,286,286z"/>
<path class="st5" d="M95.2,264.8c46.9,46.9,122.7,46.9,169.6,0c46.9-46.9,46.9-122.7,0-169.6c-46.9-46.9-122.7-46.9-169.6,0
	C48.3,142.1,48.3,217.9,95.2,264.8z"/>
<path class="st6" d="M264.8,264.8L95.2,95.2c-46.9,46.9-46.9,122.7,0,169.6C142.1,311.7,217.9,311.8,264.8,264.8z"/>
<path class="st2" d="M302.7,366.3l44.7,45l39.8-9.8l7.2-7.2l4.1-4.1l12.6-42.6l-44.7-45l-31.8,31.8L302.7,366.3z"/>
<path class="st3" d="M387.2,401.5l7.2-7.2l-59.8-59.8l-31.8,31.8l44.7,45L387.2,401.5z"/>
<path class="st7" d="M347.4,411.3l101,100.7l31.8-31.8l31.8-31.8L411,347.7l-31.6,31.6L347.4,411.3z"/>
<path class="st8" d="M448.4,512l31.8-31.8L379.4,379.4l-31.9,31.9L448.4,512z"/>
</svg>
