<?xml version="1.0" encoding="utf-8"?>
<!-- Generator: Adobe Illustrator 17.1.0, SVG Export Plug-In . SVG Version: 6.00 Build 0)  -->
<!DOCTYPE svg PUBLIC "-//W3C//DTD SVG 1.1//EN" "http://www.w3.org/Graphics/SVG/1.1/DTD/svg11.dtd">
<svg version="1.1" id="Layer_1" xmlns="http://www.w3.org/2000/svg" xmlns:xlink="http://www.w3.org/1999/xlink" x="0px" y="0px"
	 viewBox="0 0 512 512" enable-background="new 0 0 512 512" xml:space="preserve">
<path d="M102.8,363.9c-11.4-0.5-22.7-5.1-31.4-13.8c-18.7-18.8-18.5-48.9,0.2-67.7L331.8,22.3c0,0,3.5-4,5.4-5.9
	c21.9-21.9,57.3-21.9,79.2,0l79.2,79.2c21.9,21.9,21.9,57.4,0,79.2c-1.9,1.9-3.8,3.8-5.9,5.4L229.4,440.4
	c-18.7,18.7-48.9,19-67.6,0.3c-8.7-8.8-13.2-20-13.8-31.5c-11.5-0.6-22.7-5.1-31.4-13.7C107.9,386.7,103.4,375.4,102.8,363.9z
	 M207.1,418.1l214.9-215l-22.6-22.6l-214.9,215c-6.2,6.2-6.2,16.4,0,22.7C190.7,424.3,200.9,424.3,207.1,418.1z M161.9,372.8
	l214.9-215l-22.6-22.6l-214.9,215c-6.2,6.2-6.2,16.4,0,22.7C145.5,379,155.6,379,161.9,372.8z M116.6,327.5l214.9-215l-22.6-22.6
	L94,304.9c-6.3,6.2-6.2,16.3,0,22.6C100.2,333.8,110.3,333.8,116.6,327.5z M162.2,479.1c-8.4-3.9-16.2-9-22.9-15.8
	c-7.9-7.9-13.9-17.2-17.9-27.5c-10.2-3.9-19.5-10-27.4-17.8c-7.8-7.9-13.9-17.2-17.8-27.4c-10.2-3.9-19.6-10-27.4-17.8
	c-6.9-6.9-12-14.8-15.8-23.2L0,512L162.2,479.1z"/>
</svg>
